<mxfile host="app.diagrams.net" modified="2024-07-02T12:12:24.148Z" agent="Mozilla/5.0 (Windows NT 10.0; Win64; x64) AppleWebKit/537.36 (KHTML, like Gecko) Chrome/126.0.0.0 Safari/537.36" etag="dOQ8UzEhxh6B3KLBbigW" version="24.6.4" type="device">
  <diagram name="Page-1" id="lNV7s-uu3u4P6WctyG_S">
    <mxGraphModel dx="1242" dy="433" grid="1" gridSize="10" guides="1" tooltips="1" connect="1" arrows="1" fold="1" page="1" pageScale="1" pageWidth="850" pageHeight="1100" math="0" shadow="0">
      <root>
        <mxCell id="0" />
        <mxCell id="1" parent="0" />
        <mxCell id="pcoZj8P89DkyJ81WNdUz-15" value="" style="edgeStyle=orthogonalEdgeStyle;rounded=0;orthogonalLoop=1;jettySize=auto;html=1;" parent="1" source="pcoZj8P89DkyJ81WNdUz-1" target="pcoZj8P89DkyJ81WNdUz-9" edge="1">
          <mxGeometry relative="1" as="geometry" />
        </mxCell>
        <mxCell id="pcoZj8P89DkyJ81WNdUz-1" value="start" style="rounded=1;whiteSpace=wrap;html=1;fillColor=#CCFFCC;" parent="1" vertex="1">
          <mxGeometry x="70" y="50" width="120" height="60" as="geometry" />
        </mxCell>
        <mxCell id="pcoZj8P89DkyJ81WNdUz-6" value="end" style="rounded=1;whiteSpace=wrap;html=1;fillColor=#FF9999;" parent="1" vertex="1">
          <mxGeometry x="70" y="650" width="120" height="60" as="geometry" />
        </mxCell>
        <mxCell id="pcoZj8P89DkyJ81WNdUz-8" value="Homework (Task2)- calculate result of (777*888)+999." style="text;html=1;align=center;verticalAlign=middle;whiteSpace=wrap;rounded=0;" parent="1" vertex="1">
          <mxGeometry x="-10" width="280" height="30" as="geometry" />
        </mxCell>
        <mxCell id="pcoZj8P89DkyJ81WNdUz-16" value="" style="edgeStyle=orthogonalEdgeStyle;rounded=0;orthogonalLoop=1;jettySize=auto;html=1;" parent="1" source="pcoZj8P89DkyJ81WNdUz-9" target="pcoZj8P89DkyJ81WNdUz-10" edge="1">
          <mxGeometry relative="1" as="geometry" />
        </mxCell>
        <mxCell id="pcoZj8P89DkyJ81WNdUz-9" value="x (int) = 777" style="rounded=0;whiteSpace=wrap;html=1;" parent="1" vertex="1">
          <mxGeometry x="70" y="140" width="120" height="60" as="geometry" />
        </mxCell>
        <mxCell id="pcoZj8P89DkyJ81WNdUz-17" value="" style="edgeStyle=orthogonalEdgeStyle;rounded=0;orthogonalLoop=1;jettySize=auto;html=1;" parent="1" source="pcoZj8P89DkyJ81WNdUz-10" target="pcoZj8P89DkyJ81WNdUz-11" edge="1">
          <mxGeometry relative="1" as="geometry" />
        </mxCell>
        <mxCell id="pcoZj8P89DkyJ81WNdUz-10" value="y (int) = 888" style="rounded=0;whiteSpace=wrap;html=1;" parent="1" vertex="1">
          <mxGeometry x="70" y="230" width="120" height="60" as="geometry" />
        </mxCell>
        <mxCell id="pcoZj8P89DkyJ81WNdUz-18" value="" style="edgeStyle=orthogonalEdgeStyle;rounded=0;orthogonalLoop=1;jettySize=auto;html=1;" parent="1" source="pcoZj8P89DkyJ81WNdUz-11" target="pcoZj8P89DkyJ81WNdUz-12" edge="1">
          <mxGeometry relative="1" as="geometry" />
        </mxCell>
        <mxCell id="pcoZj8P89DkyJ81WNdUz-11" value="z (int) = 999" style="rounded=0;whiteSpace=wrap;html=1;" parent="1" vertex="1">
          <mxGeometry x="70" y="330" width="120" height="60" as="geometry" />
        </mxCell>
        <mxCell id="pcoZj8P89DkyJ81WNdUz-19" value="" style="edgeStyle=orthogonalEdgeStyle;rounded=0;orthogonalLoop=1;jettySize=auto;html=1;" parent="1" source="pcoZj8P89DkyJ81WNdUz-12" target="pcoZj8P89DkyJ81WNdUz-14" edge="1">
          <mxGeometry relative="1" as="geometry" />
        </mxCell>
        <mxCell id="pcoZj8P89DkyJ81WNdUz-12" value="result (int)= x*y+z" style="rounded=0;whiteSpace=wrap;html=1;" parent="1" vertex="1">
          <mxGeometry x="70" y="430" width="120" height="60" as="geometry" />
        </mxCell>
        <mxCell id="pcoZj8P89DkyJ81WNdUz-20" value="" style="edgeStyle=orthogonalEdgeStyle;rounded=0;orthogonalLoop=1;jettySize=auto;html=1;" parent="1" source="pcoZj8P89DkyJ81WNdUz-14" target="pcoZj8P89DkyJ81WNdUz-6" edge="1">
          <mxGeometry relative="1" as="geometry" />
        </mxCell>
        <mxCell id="pcoZj8P89DkyJ81WNdUz-14" value="result" style="shape=document;whiteSpace=wrap;html=1;boundedLbl=1;" parent="1" vertex="1">
          <mxGeometry x="70" y="540" width="120" height="70" as="geometry" />
        </mxCell>
      </root>
    </mxGraphModel>
  </diagram>
</mxfile>
